<svg width="55" height="55" viewBox="0 0 55 55" fill="none" xmlns="http://www.w3.org/2000/svg">
<path fill-rule="evenodd" clip-rule="evenodd" d="M24.5989 22.8273C24.3812 23.6248 24.1665 24.4154 23.9549 25.1992C27.3019 27.6008 29.1662 31.8748 29.0733 36.1247L29.0092 39.0328C28.9915 39.803 29.131 40.5687 29.419 41.2832C29.707 41.9977 30.1376 42.6461 30.6844 43.1888L31.9265 44.4182C35.026 47.4856 33.2969 52.9421 28.7594 53.3214C25.5167 53.5906 21.465 53.853 17.9003 53.853C13.3021 53.853 8.73137 53.4176 5.89658 53.083C3.08012 52.7507 0.889287 50.2849 1.17002 47.308C1.54814 43.3148 2.54272 38.8449 3.54075 35.0751C5.13002 29.0686 9.86689 23.9949 16.2595 23.3108L16.5906 22.0493L16.5941 22.0344C18.1788 15.9912 19.878 9.51271 21.7011 3.67698C22.2087 2.05333 23.7406 0.774583 25.6748 1.24437C26.0048 1.32458 26.4024 1.43115 26.729 1.52854C28.6471 2.09917 29.3495 3.9875 28.9794 5.66271C27.7556 11.2062 26.1354 17.1703 24.6035 22.809L24.5989 22.8239V22.8273ZM11.4688 39.9231C11.7679 39.9561 12.0576 40.0476 12.3214 40.1925C12.5852 40.3375 12.8178 40.5329 13.006 40.7677C13.1942 41.0026 13.3344 41.2722 13.4184 41.5612C13.5024 41.8501 13.5287 42.1528 13.4957 42.452C13.356 43.7193 13.5026 46.7592 14.8765 49.2078C15.9836 49.2517 17.0914 49.2719 18.1994 49.2685C16.7831 46.4647 16.7854 43.6402 16.7866 42.554V42.4841C16.7866 42.1831 16.8459 41.8851 16.961 41.6071C17.0762 41.329 17.245 41.0764 17.4578 40.8636C17.6706 40.6508 17.9232 40.482 18.2013 40.3668C18.4793 40.2517 18.7773 40.1924 19.0782 40.1924C19.3792 40.1924 19.6772 40.2517 19.9552 40.3668C20.2333 40.482 20.4859 40.6508 20.6987 40.8636C20.9115 41.0764 21.0803 41.329 21.1955 41.6071C21.3106 41.8851 21.3699 42.1831 21.3699 42.4841C21.3699 43.9736 21.4352 46.9998 23.7131 49.0841C25.3368 48.9913 26.9306 48.8732 28.3778 48.7529C28.494 48.7478 28.6059 48.7074 28.6987 48.6372C28.767 48.5772 28.8217 48.5034 28.8594 48.4207C28.897 48.338 28.9167 48.2482 28.917 48.1573C28.9173 48.0664 28.8983 47.9765 28.8613 47.8935C28.8242 47.8105 28.77 47.7363 28.7021 47.6758L27.46 46.4475C26.4704 45.4666 25.6911 44.2942 25.1696 43.0021C24.6481 41.7099 24.3955 40.325 24.427 38.932L24.4912 36.0239C24.5943 31.3626 21.575 27.8162 17.7365 27.8162C13.1566 27.8162 9.28022 31.2973 7.97168 36.2473C6.99772 39.9254 6.07533 44.1146 5.73387 47.7377C5.6995 48.0975 5.94814 48.4745 6.43283 48.5318C7.37241 48.6418 8.5022 48.7632 9.75345 48.8755C8.82762 46.0648 8.78752 43.332 8.93991 41.9501C8.97286 41.651 9.06441 41.3612 9.20933 41.0975C9.35425 40.8337 9.5497 40.6011 9.78453 40.4129C10.0194 40.2246 10.289 40.0845 10.5779 40.0005C10.8669 39.9165 11.1696 39.8902 11.4688 39.9231ZM30.2043 33.9453C30.2043 33.3375 30.4457 32.7546 30.8755 32.3249C31.3053 31.8951 31.8882 31.6536 32.496 31.6536H45.971C46.5787 31.6536 47.1616 31.8951 47.5914 32.3249C48.0212 32.7546 48.2626 33.3375 48.2626 33.9453C48.2626 34.5531 48.0212 35.136 47.5914 35.5658C47.1616 35.9955 46.5787 36.237 45.971 36.237H32.496C31.8882 36.237 31.3053 35.9955 30.8755 35.5658C30.4457 35.136 30.2043 34.5531 30.2043 33.9453ZM35.2918 38.39C34.684 38.39 34.1011 38.6314 33.6713 39.0612C33.2416 39.491 33.0001 40.0739 33.0001 40.6817C33.0001 41.2895 33.2416 41.8723 33.6713 42.3021C34.1011 42.7319 34.684 42.9733 35.2918 42.9733H48.7668C49.3746 42.9733 49.9575 42.7319 50.3872 42.3021C50.817 41.8723 51.0585 41.2895 51.0585 40.6817C51.0585 40.0739 50.817 39.491 50.3872 39.0612C49.9575 38.6314 49.3746 38.39 48.7668 38.39H35.2918ZM38.0876 45.1264C37.4798 45.1264 36.8969 45.3678 36.4672 45.7976C36.0374 46.2273 35.796 46.8102 35.796 47.418C35.796 48.0258 36.0374 48.6087 36.4672 49.0385C36.8969 49.4683 37.4798 49.7097 38.0876 49.7097H51.5626C52.1704 49.7097 52.7533 49.4683 53.1831 49.0385C53.6128 48.6087 53.8543 48.0258 53.8543 47.418C53.8543 46.8102 53.6128 46.2273 53.1831 45.7976C52.7533 45.3678 52.1704 45.1264 51.5626 45.1264H38.0876Z" fill="#002774"/>
</svg>
