<svg width="56" height="56" viewBox="0 0 56 56" fill="none" xmlns="http://www.w3.org/2000/svg">
<path d="M20.4167 53.6666C19.25 53.6666 18.2296 53.2871 17.3553 52.528C16.4811 51.7689 15.9654 50.8068 15.8083 49.6416L12.0167 21.2916C11.9389 20.5916 12.1333 19.9795 12.6 19.4553C13.0667 18.9311 13.65 18.6682 14.35 18.6666H41.65C42.35 18.6666 42.9333 18.9295 43.4 19.4553C43.8667 19.9811 44.0611 20.5932 43.9833 21.2916L40.1917 49.6416C40.0361 50.8083 39.5204 51.7712 38.6447 52.5303C37.7689 53.2894 36.7484 53.6682 35.5833 53.6666H20.4167ZM20.4167 49H35.5833L38.9667 23.3333H16.975L20.4167 49ZM28 37.3333C29.9444 37.3333 31.5972 36.6528 32.9583 35.2916C34.3194 33.9305 35 32.2778 35 30.3333V28C35 27.3389 34.776 26.7851 34.328 26.3386C33.88 25.8922 33.3262 25.6682 32.6667 25.6666C32.0071 25.6651 31.4533 25.8891 31.0053 26.3386C30.5573 26.7882 30.3333 27.342 30.3333 28V30.3333C30.3333 30.9944 30.1093 31.549 29.6613 31.997C29.2133 32.445 28.6596 32.6682 28 32.6666C27.3404 32.6651 26.7867 32.4411 26.3387 31.9946C25.8907 31.5482 25.6667 30.9944 25.6667 30.3333V28C25.6667 27.3389 25.4427 26.7851 24.9947 26.3386C24.5467 25.8922 23.9929 25.6682 23.3333 25.6666C22.6738 25.6651 22.12 25.8891 21.672 26.3386C21.224 26.7882 21 27.342 21 28V30.3333C21 32.2778 21.6806 33.9305 23.0417 35.2916C24.4028 36.6528 26.0556 37.3333 28 37.3333ZM35 16.3333C34.0278 16.3333 33.2018 15.9934 32.522 15.3136C31.8422 14.6339 31.5016 13.8071 31.5 12.8333C31.4984 11.8595 31.8391 11.0335 32.522 10.3553C33.2049 9.67709 34.0309 9.33642 35 9.33331C35.9691 9.3302 36.7959 9.67087 37.4803 10.3553C38.1648 11.0398 38.5047 11.8658 38.5 12.8333C38.4953 13.8009 38.1554 14.6276 37.4803 15.3136C36.8052 15.9996 35.9784 16.3395 35 16.3333ZM23.3333 14C21.7 14 20.3194 13.4361 19.1917 12.3083C18.0639 11.1805 17.5 9.79998 17.5 8.16665C17.5 6.53331 18.0639 5.15276 19.1917 4.02498C20.3194 2.8972 21.7 2.33331 23.3333 2.33331C24.9667 2.33331 26.3472 2.8972 27.475 4.02498C28.6028 5.15276 29.1667 6.53331 29.1667 8.16665C29.1667 9.79998 28.6028 11.1805 27.475 12.3083C26.3472 13.4361 24.9667 14 23.3333 14Z" fill="#002774"/>
</svg>
