<svg width="54" height="54" viewBox="0 0 54 54" fill="none" xmlns="http://www.w3.org/2000/svg">
<path d="M9 49.5C7.125 49.5 5.53125 48.8438 4.21875 47.5312C2.90625 46.2188 2.25 44.625 2.25 42.75C2.25 40.875 2.90625 39.2812 4.21875 37.9688C5.53125 36.6562 7.125 36 9 36C10.875 36 12.4688 36.6562 13.7812 37.9688C15.0938 39.2812 15.75 40.875 15.75 42.75C15.75 44.625 15.0938 46.2188 13.7812 47.5312C12.4688 48.8438 10.875 49.5 9 49.5ZM9 45C9.6375 45 10.1722 44.784 10.6042 44.352C11.0362 43.92 11.2515 43.386 11.25 42.75C11.2485 42.114 11.0325 41.58 10.602 41.148C10.1715 40.716 9.6375 40.5 9 40.5C8.3625 40.5 7.8285 40.716 7.398 41.148C6.9675 41.58 6.7515 42.114 6.75 42.75C6.7485 43.386 6.9645 43.9207 7.398 44.3542C7.8315 44.7878 8.3655 45.003 9 45ZM18 49.5C18.525 48.825 18.9472 48.1222 19.2668 47.3918C19.5863 46.6613 19.839 45.864 20.025 45H24.75V29.25C24.75 28.0125 24.3097 26.9535 23.4293 26.073C22.5487 25.1925 21.489 24.7515 20.25 24.75H9V31.5C8.2125 31.5 7.43475 31.575 6.66675 31.725C5.89875 31.875 5.1765 32.1 4.5 32.4V20.25H11.25V12.6C11.25 9.7125 12.2535 7.266 14.2605 5.2605C16.2675 3.255 18.714 2.2515 21.6 2.25C23.7 2.25 25.6125 2.82225 27.3375 3.96675C29.0625 5.11125 30.3375 6.639 31.1625 8.55L46.5187 45H51.75V49.5H36V45H41.625L27.0562 10.35C26.6062 9.2625 25.8847 8.391 24.8918 7.7355C23.8988 7.08 22.8015 6.7515 21.6 6.75C19.95 6.75 18.5625 7.3125 17.4375 8.4375C16.3125 9.5625 15.75 10.95 15.75 12.6V20.25H20.25C22.725 20.25 24.8438 21.1313 26.6062 22.8938C28.3687 24.6562 29.25 26.775 29.25 29.25V49.5H18Z" fill="#002774"/>
</svg>
